<svg width="112" height="112" viewBox="0 0 112 112" fill="none" xmlns="http://www.w3.org/2000/svg">
<g clip-path="url(#clip0_203_17)">
<path d="M48.8048 59.4471C47.0887 57.2944 45.1235 55.647 42.923 54.5326C44.8675 53.349 46.5421 51.8955 47.926 50.1651C50.2579 47.2441 51.4412 43.5823 51.4412 39.277C51.4412 35.6846 50.4932 32.383 48.618 29.4689C46.7496 26.5549 43.9679 24.2153 40.3489 22.5125C36.806 20.8444 32.5365 20 27.672 20H0V91.481H28.9452C33.6852 91.481 37.9201 90.6158 41.5253 88.9131C45.1996 87.1827 48.0644 84.7599 50.0296 81.7213C52.0017 78.6688 53.0051 75.2011 53.0051 71.4149C53.0051 66.978 51.5935 62.9564 48.8048 59.454V59.4471ZM34.1073 46.4203C32.3981 47.8047 29.9001 48.5107 26.6963 48.5107H14.7252V32.6738H26.6963C29.8863 32.6738 32.3705 33.4005 34.0796 34.8402C35.7196 36.2176 36.5154 38.1212 36.5154 40.6407C36.5154 43.1603 35.7265 45.1121 34.1073 46.4203ZM14.7252 61.1914H27.5751C30.9381 61.1914 33.5261 62.0081 35.4843 63.6901C37.3596 65.3028 38.273 67.4418 38.273 70.2382C38.273 73.0346 37.4288 75.0071 35.685 76.4815C33.879 78.0112 31.2841 78.7865 27.9626 78.7865H14.7252V61.1914Z" fill="#383D38"/>
<path d="M109.539 47.4933C107.311 43.4648 104.156 40.2878 100.156 38.059C96.1634 35.8302 91.548 34.7019 86.4551 34.7019C81.3622 34.7019 76.4007 35.8648 72.3112 38.1559C68.2147 40.4539 64.9901 43.7555 62.7343 47.9847C60.4784 52.207 59.3367 57.163 59.3367 62.7143C59.3367 68.2655 60.513 73.2284 62.838 77.4438C65.1631 81.6661 68.4153 84.9885 72.5118 87.3142C76.6014 89.6399 81.293 90.8167 86.462 90.8167C92.8074 90.8167 98.1978 89.2038 102.488 86.0267C106.778 82.8496 109.781 78.7104 111.421 73.7336L111.539 73.3806H98.9867L98.9106 73.5331C96.4956 78.4267 92.3092 80.9047 86.4551 80.9047C82.3794 80.9047 78.8918 79.6103 76.0893 77.07C73.356 74.5851 71.7853 71.2626 71.4185 67.1857H112.466L112.501 66.9574C112.764 65.3169 112.895 63.4617 112.895 61.4475C112.895 56.2147 111.767 51.5218 109.539 47.4933ZM76.2831 48.2132C78.9541 45.8252 82.2133 44.6208 85.9638 44.6208C90.1087 44.6208 93.6308 45.846 96.4333 48.2686C99.1597 50.622 100.606 53.7851 100.73 57.6613H71.5361C72.0897 53.7229 73.6882 50.5458 76.29 48.2201L76.2831 48.2132Z" fill="#383D38"/>
<path d="M99.7825 21.6404H72.4426V28.1192H99.7825V21.6404Z" fill="#383D38"/>
</g>
<defs>
<clipPath id="clip0_203_17">
<rect width="112" height="112" fill="white"/>
</clipPath>
</defs>
</svg>
