<svg width="112" height="112" viewBox="0 0 112 112" fill="none" xmlns="http://www.w3.org/2000/svg">
<g clip-path="url(#clip0_203_17)">
<path d="M111.905 58.3102C111.917 58.1167 111.923 57.9167 111.929 57.717L112.036 55.2382L111.942 55.2132C111.761 42.1139 107.092 29.7014 98.6717 19.7863L98.7716 19.6802L96.1188 16.9517C85.4764 6.01889 71.2261 0 55.9835 0C48.1561 0 40.6284 1.57966 33.5564 4.68279L33.5002 4.63904L31.2032 5.77544C28.1634 7.28018 25.2921 9.04086 22.6144 11.0326C20.8292 12.3625 19.1314 13.7862 17.521 15.3096C16.9218 15.8778 16.3413 16.4585 15.767 17.0516C7.89599 25.1872 2.55292 35.6205 0.711565 47.034L0.118597 50.7303L0.249672 50.7615C0.0873826 52.4973 0 54.2517 0 55.9999C0 70.8413 5.9173 85.0707 16.335 95.529L16.2913 95.6102L18.6258 97.7018C28.9062 106.918 42.1702 112 55.9772 112C56.9572 112 57.9309 111.975 58.8984 111.925C65.6896 111.582 72.2623 110.021 78.4667 107.292C78.4667 107.292 78.473 107.292 78.4792 107.292L80.9073 106.225V106.15C98.9776 97.1274 111.043 78.6897 111.898 58.4663C111.898 58.4601 111.898 58.4538 111.898 58.4476C111.898 58.4413 111.898 58.4288 111.898 58.4226V58.3351L111.905 58.3102ZM103.703 61.3696C103.678 61.5694 103.653 61.7692 103.628 61.969C103.584 62.3124 103.54 62.6559 103.49 62.993C103.459 63.2115 103.422 63.43 103.384 63.6485C103.334 63.9669 103.278 64.2854 103.222 64.6038C103.178 64.8348 103.135 65.0596 103.085 65.2907C103.022 65.5966 102.966 65.9025 102.897 66.2022C102.848 66.4332 102.791 66.6643 102.735 66.8953C102.667 67.195 102.592 67.4885 102.517 67.7819C102.454 68.0129 102.392 68.2501 102.329 68.4811C102.248 68.7683 102.167 69.0619 102.086 69.3491C102.017 69.5801 101.949 69.8173 101.874 70.0483C101.786 70.3355 101.693 70.6166 101.605 70.9038C101.531 71.1348 101.449 71.3657 101.368 71.5967C101.268 71.8777 101.168 72.1587 101.069 72.4397C100.987 72.6645 100.9 72.8955 100.813 73.1203C100.707 73.4013 100.594 73.6759 100.482 73.9569C100.394 74.1817 100.301 74.4002 100.207 74.625C100.089 74.8997 99.97 75.1745 99.8452 75.4492C99.7453 75.6677 99.6517 75.8863 99.5518 76.0986C99.4208 76.3733 99.2897 76.6479 99.1586 76.9227C99.0587 77.1349 98.9526 77.341 98.8465 77.5533C98.7092 77.828 98.5594 78.1028 98.4158 78.3775C98.3097 78.5773 98.2036 78.7771 98.0975 78.9769C97.9414 79.2578 97.7791 79.5389 97.6168 79.8198C97.5107 80.0071 97.4046 80.1944 97.2985 80.3754C97.1175 80.6814 96.9303 80.9873 96.743 81.287C96.6494 81.4369 96.5557 81.5929 96.4621 81.749C96.1999 82.1611 95.9315 82.5671 95.6569 82.9729C95.6319 83.0166 95.6007 83.0541 95.5758 83.0978C95.2699 83.5411 94.9578 83.9781 94.6395 84.4151C94.5459 84.54 94.446 84.6649 94.3523 84.7898C94.1276 85.0957 93.8967 85.3954 93.6657 85.6951C93.5409 85.8575 93.4098 86.0136 93.2787 86.1759C93.0727 86.4319 92.8605 86.6941 92.6483 86.9439C92.5048 87.1124 92.3549 87.2811 92.2114 87.4496C92.0054 87.6869 91.7994 87.9241 91.5872 88.1614C91.4311 88.3362 91.2751 88.5048 91.1191 88.6734C90.9131 88.8982 90.7008 89.123 90.4886 89.3478C90.3263 89.5163 90.1578 89.6848 89.9893 89.8534C89.777 90.0657 89.5648 90.2842 89.3463 90.4965C89.1716 90.6651 89.003 90.8275 88.8283 90.996C88.6098 91.2021 88.3913 91.4081 88.1729 91.6079C87.9918 91.7702 87.8108 91.9326 87.6298 92.0949C87.4051 92.2947 87.1804 92.4883 86.9495 92.6818C86.7622 92.8379 86.5812 92.994 86.3877 93.1501C86.1567 93.3374 85.9258 93.531 85.6886 93.7121C85.5013 93.862 85.3079 94.0118 85.1144 94.1616C84.8772 94.3427 84.6337 94.5237 84.3965 94.7048C84.203 94.8484 84.0033 94.9921 83.8098 95.1357C83.5664 95.3105 83.3167 95.4852 83.067 95.6538C82.8673 95.7912 82.6738 95.9286 82.474 96.0598C82.2181 96.2283 81.9559 96.3968 81.7 96.5591C81.5003 96.684 81.3006 96.8152 81.1008 96.9401C80.9136 97.0587 80.72 97.1649 80.5266 97.2835C79.6215 85.4704 76.9749 73.2389 72.7741 61.4757C83.1794 59.1343 93.7406 59.0593 103.715 61.2821C103.715 61.3133 103.715 61.3446 103.709 61.3696H103.703ZM69.8529 53.9957C68.4423 50.6553 66.9317 47.3899 65.3088 44.2306C75.7577 39.4791 85.2392 33.0918 93.104 25.5182C99.5706 33.379 103.334 43.0005 103.915 53.1965C92.873 50.98 81.2506 51.2547 69.8467 53.9957H69.8529ZM9.36283 44.3742C9.54384 43.6437 9.74358 42.9132 9.96204 42.1889C9.9995 42.0578 10.0432 41.9203 10.0806 41.7892C10.2991 41.0837 10.5301 40.3845 10.7797 39.6914C10.7985 39.6414 10.8109 39.5978 10.8297 39.5478C10.8609 39.4604 10.8921 39.3729 10.9233 39.2855C11.1792 38.5987 11.4476 37.9243 11.7285 37.25C11.7722 37.1501 11.8096 37.0565 11.8533 36.9566C11.8596 36.9378 11.8721 36.9192 11.8783 36.8942C12.1717 36.2074 12.4838 35.5331 12.8146 34.865C12.8645 34.7589 12.9207 34.6527 12.9706 34.5403C13.3077 33.866 13.6572 33.2042 14.0255 32.5486C14.0817 32.4425 14.1379 32.3426 14.2003 32.2427C14.5623 31.6058 14.9431 30.9752 15.3363 30.3508C15.38 30.2821 15.4237 30.2134 15.4674 30.1447C15.4924 30.101 15.5236 30.0573 15.5548 30.0136C15.9542 29.3893 16.3725 28.7774 16.7969 28.178C16.8718 28.0719 16.953 27.9595 17.0279 27.8533C17.4648 27.2477 17.9204 26.6482 18.3886 26.0613C18.4635 25.9676 18.5446 25.874 18.6195 25.7804C19.0939 25.1935 19.5808 24.6128 20.0864 24.0446C20.1488 23.9697 20.2175 23.9009 20.2799 23.826C20.798 23.2453 21.3348 22.6834 21.884 22.1277C21.9465 22.0653 22.0026 22.0091 22.0651 21.9466C22.6019 21.4159 23.1449 20.8914 23.7067 20.3857C23.7566 20.342 23.8066 20.2921 23.8565 20.2484C23.8877 20.2234 23.9127 20.1985 23.9439 20.1735C24.5056 19.674 25.0799 19.1869 25.6604 18.7062C25.754 18.6312 25.8476 18.5502 25.9413 18.4752C26.5343 18.0007 27.1335 17.5449 27.7514 17.0954C27.8575 17.0205 27.9637 16.9392 28.076 16.8643C28.694 16.421 29.3244 15.9901 29.9673 15.5781C30.0672 15.5156 30.1733 15.4471 30.2731 15.3846C30.9348 14.9663 31.6027 14.5603 32.2893 14.1732C32.3392 14.1482 32.3891 14.1171 32.4391 14.0921C40.4724 21.0851 47.8316 30.0135 53.9736 40.2095C39.1553 45.423 23.5069 46.9341 9.31913 44.524C9.33161 44.4741 9.3441 44.4179 9.35658 44.3617L9.36283 44.3742ZM58.2992 8.0045C58.5551 8.01698 58.811 8.04186 59.0669 8.05434C59.585 8.08556 60.0969 8.12313 60.6087 8.16684C60.9083 8.19806 61.2079 8.23547 61.5075 8.26668C61.9694 8.31663 62.4313 8.37285 62.8932 8.44153C63.2116 8.48523 63.5237 8.54142 63.8358 8.59137C64.2789 8.6663 64.7159 8.74129 65.1528 8.82246C65.4711 8.8849 65.7895 8.94722 66.1078 9.0159C66.5385 9.10956 66.9692 9.20319 67.3936 9.30934C67.712 9.38426 68.0241 9.46551 68.3362 9.54668C68.7606 9.65907 69.1851 9.77774 69.6095 9.90261C69.9154 9.99003 70.2212 10.0836 70.5271 10.1773C70.9578 10.3147 71.3884 10.4582 71.8191 10.6081C72.1062 10.708 72.3934 10.8016 72.6805 10.9078C73.1424 11.0826 73.6043 11.2637 74.06 11.451C74.3034 11.5509 74.5468 11.6383 74.784 11.7445C75.4394 12.0254 76.0886 12.3188 76.7315 12.6248C76.7939 12.656 76.8626 12.6873 76.925 12.7185C77.5742 13.0307 78.2171 13.3615 78.8475 13.7049C79.0784 13.8298 79.3032 13.961 79.5279 14.0921C79.9586 14.3356 80.3892 14.5791 80.8199 14.8413C81.0821 14.9974 81.3318 15.166 81.5877 15.3284C81.9747 15.5719 82.3554 15.8153 82.7362 16.0713C83.0046 16.2524 83.2667 16.4336 83.5289 16.6209C83.8909 16.8769 84.253 17.1329 84.6088 17.4013C84.8709 17.5949 85.1268 17.7947 85.389 17.9945C85.7385 18.2692 86.0881 18.5438 86.4314 18.831C86.6811 19.0371 86.9307 19.2494 87.1804 19.4616C87.3115 19.574 87.4426 19.6989 87.5737 19.8113C80.2207 26.8917 71.3011 32.8358 61.4576 37.2377C55.4404 27.0167 48.2498 17.932 40.3538 10.5332C45.3473 8.80997 50.578 7.93575 55.971 7.93575C56.7512 7.93575 57.5252 7.95454 58.2992 7.992V8.0045ZM8.077 52.3848C12.8957 53.1965 17.858 53.6024 22.889 53.6024C34.4864 53.6024 46.4646 51.467 57.9122 47.265C59.4227 50.1683 60.8459 53.1591 62.1692 56.231C61.5013 56.4558 60.8397 56.6805 60.178 56.924C43.3873 63.1365 29.4742 74.1942 20.4547 88.3237C12.4526 79.5263 7.93968 67.9941 7.93968 55.9937C7.93968 54.7886 7.98961 53.5836 8.077 52.3848ZM53.8487 103.989C53.6178 103.977 53.3868 103.958 53.1559 103.946C52.6815 103.921 52.2134 103.889 51.739 103.846C51.4643 103.821 51.1959 103.789 50.9213 103.758C50.4968 103.714 50.0662 103.665 49.6417 103.608C49.3546 103.571 49.0675 103.527 48.7803 103.483C48.3746 103.421 47.9689 103.359 47.5632 103.284C47.2698 103.234 46.9764 103.177 46.6893 103.115C46.2898 103.034 45.8966 102.953 45.5033 102.865C45.21 102.803 44.9228 102.734 44.6357 102.659C44.2425 102.566 43.8492 102.459 43.4623 102.36C43.1751 102.285 42.8942 102.204 42.6133 102.122C42.2201 102.01 41.8269 101.885 41.4336 101.76C41.159 101.673 40.8906 101.592 40.616 101.498C40.2102 101.361 39.8045 101.211 39.405 101.067C39.1554 100.974 38.8994 100.886 38.6497 100.786C38.2128 100.618 37.7759 100.437 37.339 100.249C37.133 100.162 36.927 100.081 36.721 99.9932C36.0968 99.7185 35.4789 99.4313 34.8672 99.1316C34.8547 99.1316 34.8422 99.1191 34.8297 99.1129C34.1993 98.8069 33.5813 98.4822 32.9634 98.1451C32.7824 98.0452 32.6014 97.9328 32.4141 97.8329C31.9897 97.5956 31.5652 97.3522 31.147 97.1024C30.9223 96.965 30.6976 96.8215 30.4729 96.6779C30.1046 96.4469 29.7363 96.2158 29.3743 95.9723C29.1371 95.8162 28.8999 95.6476 28.669 95.4852C28.3257 95.248 27.9886 95.0108 27.6515 94.761C27.4081 94.5862 27.1709 94.4051 26.9337 94.224C26.7527 94.0866 26.5717 93.9431 26.3907 93.7995C34.4365 80.5378 47.3072 70.1545 62.9432 64.3666C63.6547 64.1044 64.3788 63.8609 65.1029 63.6174C69.5596 75.9175 72.2061 88.7608 72.8053 100.992C72.1125 101.254 71.4134 101.498 70.7143 101.723C70.5271 101.785 70.3335 101.835 70.1463 101.891C69.597 102.06 69.0415 102.228 68.486 102.378C68.2113 102.453 67.9304 102.516 67.6495 102.591C67.1752 102.709 66.7008 102.822 66.2202 102.928C65.9205 102.997 65.6147 103.053 65.3088 103.115C64.8469 103.209 64.385 103.29 63.9169 103.371C63.6111 103.421 63.299 103.471 62.9869 103.515C62.5125 103.583 62.0381 103.646 61.5575 103.696C61.2579 103.733 60.9645 103.764 60.6649 103.796C60.1405 103.846 59.6163 103.883 59.0919 103.914C58.836 103.933 58.5863 103.952 58.3304 103.964C57.5502 104.002 56.7637 104.027 55.9772 104.027C55.2657 104.027 54.5603 104.008 53.855 103.977L53.8487 103.989Z" fill="#383D38"/>
</g>
<defs>
<clipPath id="clip0_203_17">
<rect width="112" height="112" fill="white"/>
</clipPath>
</defs>
</svg>
