<svg width="112" height="112" viewBox="0 0 112 112" fill="none" xmlns="http://www.w3.org/2000/svg">
<path d="M3.92718 22.868C1.30435 20.4328 0 17.4185 0 13.832C0 10.2455 1.31133 7.09846 3.92718 4.65628C6.55 2.22108 9.92621 1 14.0627 1C18.1993 1 21.443 2.22108 24.0588 4.65628C26.6816 7.09148 27.986 10.1548 27.986 13.832C27.986 17.5092 26.6747 20.4328 24.0588 22.868C21.436 25.3032 18.1086 26.5243 14.0627 26.5243C10.0169 26.5243 6.55 25.3032 3.92718 22.868ZM25.7818 36.8373V111.498H2.19724V36.8373H25.7818Z" fill="#383D38"/>
<path d="M104.292 44.2125C109.433 49.7947 112 57.4563 112 67.211V110.179H89.6015V70.2392C89.6015 65.32 88.325 61.4962 85.7789 58.775C83.2328 56.0537 79.8008 54.686 75.5039 54.686C71.2069 54.686 67.7747 56.0467 65.2286 58.775C62.6826 61.4962 61.406 65.32 61.406 70.2392V110.179H38.875V36.6279H61.406V46.3827C63.6871 43.1311 66.7634 40.5633 70.6279 38.6723C74.4924 36.7814 78.8382 35.8394 83.6722 35.8394C92.2801 35.8394 99.1579 38.6304 104.292 44.2125Z" fill="#383D38"/>
</svg>
